<?xml version="1.0" encoding="utf-8"?>
<!-- Generator: Adobe Illustrator 27.5.0, SVG Export Plug-In . SVG Version: 6.00 Build 0)  -->
<svg version="1.1" id="Layer_1" xmlns="http://www.w3.org/2000/svg" xmlns:xlink="http://www.w3.org/1999/xlink" x="0px" y="0px"
	 viewBox="0 0 4000 4000" style="enable-background:new 0 0 4000 4000;" xml:space="preserve">
<g>
	<g>
		<g>
			<rect style="fill:#02DAFF;" width="4000" height="4000"/>
		</g>
	</g>
	<g>
		<g style="opacity:0.3;">
			<g>
				<g>
					<path style="fill:#650000;" d="M3277.425,1193.615c-333.345-246.762-730.57-377.192-1148.735-377.192
						s-815.39,130.43-1148.73,377.192c-80.303,59.439-108.668,164.793-68.98,256.206c25.378,58.453,75.046,102.097,136.268,119.735
						c30.225,8.707,61.435,10.525,91.628,5.836l186.641,344.666c-0.786,5.271-1.578,10.538-2.336,15.844
						c-4.356,30.14-8.415,60.954-8.797,92.798c-0.213,15.901,0.438,32.021,2.336,48.203c0.964,7.944,2.122,16.467,4.169,24.8
						c1.888,8.34,4.353,16.587,7.43,24.725c2.933,8.17,6.854,16.15,11.129,24.037c4.657,7.77,9.709,15.469,16.142,22.591
						c12.531,14.14,30.385,26.677,51.047,31.082c10.16,2.58,20.668,2.805,30.354,1.94c9.737-0.848,18.734-2.995,26.992-5.603
						c3.909-1.203,7.648-2.518,11.286-3.873l145.923,269.471c-0.993,2.281-2.025,4.471-3.018,6.778
						c-1.629,3.819-3.225,7.688-4.788,11.605c-1.559,4.031-3.24,8.313-4.55,12.61c-5.342,17.222-9.46,35.552-8.205,56.068
						c0.644,10.188,2.642,20.999,7.2,31.557c4.488,10.557,11.806,20.475,20.667,28.122c8.926,7.42,16.707,11.338,21.419,14.761
						c2.505,1.652,3.801,2.993,5.441,4.576c1.512,1.602,2.885,3.371,4.126,5.396c4.964,8.063,7.512,21.018,8.171,35.536
						c0.817,14.616,0.169,30.558,1.445,48.71c1.452,17.717,4.748,36.469,12.962,54.603c8.348,18.246,21.409,35.131,40.249,46.532
						c9.223,5.75,20.472,9.674,31.388,11.222c11.003,1.688,21.79,0.781,31.541-0.975c9.814-1.734,18.656-4.904,26.857-8.099
						c0.983-0.385,1.875-0.821,2.84-1.217l169.613,313.219c-2.171,14.521-4.293,29.246-5.775,44.296
						c-2.234,22.246-2.712,45.774-0.006,68.879c2.671,23.165,8.248,46.514,18.407,68.706c4.936,11.122,11.36,21.808,18.823,31.806
						c7.451,10.146,16.153,19.017,26.267,27.313c10.336,8.099,21.785,14.706,34.54,19.193c12.676,4.438,26.819,7.109,41.694,5.525
						c14.803-1.314,29.975-7.557,41.491-16.938c11.845-9.275,20.126-21.078,26.15-32.684c12.066-23.515,15.991-47.287,18.72-69.499
						c2.185-19.153,2.525-38.455,1.389-57.618c18.62-12.392,34.309-29.381,45.605-50.241l145.872-269.378
						c2.023,3.143,4.171,6.28,6.447,9.202c7.35,9.515,16.298,18.006,27.15,24.979c10.839,6.864,24.022,12.29,38.888,13.214
						c14.736,1.079,30.317-3.232,42.444-11.084c12.244-7.797,21.278-18.22,27.8-29.153c6.521-11.017,10.856-22.66,13.292-34.828
						c2.406-11.972,2.865-23.134,2.741-33.881c-0.341-21.333-3.016-40.46-2.796-57.095c0.074-16.489,3.533-32.177,10.461-42.313
						c3.667-5.196,6.934-8.377,14.064-12.809l12.225-7.354c4.581-2.702,9.751-6.382,14.464-10.304
						c9.421-7.889,17.429-17.259,23.903-27.274c6.504-10.047,11.128-20.846,14.574-31.727c6.866-21.836,8.981-44.108,7.604-66.014
						c-0.354-5.481-1.014-10.935-1.793-16.377c-0.841-5.296-1.793-10.514-3.003-15.625c-2.284-10.26-5.136-20.202-8.378-29.808
						c-4.438-13.287-9.469-25.967-14.512-38.309l157.086-290.086c5.315,6.513,11.627,12.513,19.203,17.656
						c9.502,6.407,21.115,10.987,33.141,12.282c12.158,1.357,24.203-0.559,34.776-4.525c10.624-3.957,19.919-9.883,28.026-16.907
						c8.092-7.014,14.958-15.711,20.115-24.409c10.473-17.732,15.346-36.689,17.967-54.698c4.856-35.894,1.654-71.372-5.095-104.538
						c-4.683-22.936-10.987-44.849-17.422-66.241l156.338-288.705c8.643,1.784,17.794,2.685,26.78,1.533
						c18.406-1.682,35.545-10.402,48.076-21.684c12.814-11.274,21.692-25.006,27.923-39.326c2.999-7.124,5.607-14.805,7.148-21.975
						c0.945-4.142,1.702-8.24,2.372-12.31c10.193-1.39,20.352-3.495,30.4-6.39c61.22-17.638,110.894-61.282,136.268-119.735
						C3386.093,1358.408,3357.726,1253.054,3277.425,1193.615z"/>
				</g>
			</g>
			<g>
				<g>
					<path style="fill:#650000;" d="M1936.481,3306.24c-2.885-1.731-6.117-3.289-9.809-4.558
						C1929.962,3303.182,1933.192,3304.74,1936.481,3306.24z"/>
				</g>
			</g>
		</g>
		<g>
			<g>
				<g>
					<path style="fill:#FFBC00;" d="M2959.755,1488.809l-210.157,388.115l-39.008,72.014l-46.393,85.632l-13.792,25.563
						l-4.616,8.482l-2.77,5.077l-181.363,334.912l-170.226,314.369l-29.313,54.184l-6.694,12.406l-163.82,302.482
						c-10.676,19.736-25.621,34.68-42.759,44.894c-21.523,12.81-46.566,18.12-70.975,15.926
						c-36.642-3.346-71.899-23.601-92.038-60.82l-12.637-23.312l-855.514-1579.924c179.054-118.004,357.936-203.809,536.643-257.07
						C2024.149,1091.635,2492.645,1175.998,2959.755,1488.809z"/>
				</g>
			</g>
			<g style="opacity:0.55;">
				<g>
					<path style="fill:#FFFFFF;" d="M2065.522,3124.764c-5.251,4.674-10.849,8.713-16.677,12.175
						c-21.523,12.81-46.566,18.12-70.975,15.926c-36.642-3.346-71.899-23.601-92.038-60.82l-12.637-23.312l-855.514-1579.924
						c93.999-61.974,187.999-115.061,281.94-159.205c-75.997,38.431-152.05,82.748-228.103,132.892l855.514,1579.925l12.637,23.312
						c20.138,37.219,55.395,57.473,92.037,60.82C2042.96,3127.591,2054.385,3126.956,2065.522,3124.764z"/>
				</g>
			</g>
			<g>
				<g>
					<path style="fill:#650000;" d="M1994.49,3176.425c-52.241,0-98.286-27.429-123.164-73.369l-868.184-1603.254
						c-6.069-11.211-1.904-25.217,9.307-31.289c11.201-6.062,25.215-1.902,31.289,9.307l868.184,1603.254
						c16.675,30.801,47.544,49.187,82.568,49.187s65.894-18.386,82.568-49.187l868.184-1603.254
						c6.074-11.206,20.073-15.364,31.289-9.307c11.211,6.072,15.376,20.078,9.307,31.289l-868.184,1603.254
						C2092.776,3148.996,2046.731,3176.425,1994.49,3176.425z"/>
				</g>
			</g>
			<g>
				<g>
					<path style="fill:#FF8806;" d="M3191.031,1367.862c-30.063,69.129-95.153,110.156-163.878,113.965
						c-23.255,1.27-46.855-1.731-69.706-9.348c-16.503-5.424-32.545-13.272-47.721-23.658
						c-14.541-9.926-29.255-19.677-44.143-29.141c-3.808-2.424-7.674-4.847-11.541-7.27
						c-135.777-84.998-285.055-150.434-443.856-192.442c-43.104-11.367-86.959-21.061-131.391-28.91
						c-31.276-5.481-62.839-10.156-94.75-13.848c-5.539-0.635-11.079-1.27-16.676-1.847c-1.674-0.173-3.405-0.347-5.135-0.52
						c-6.059-0.634-12.176-1.212-18.292-1.789c-49.164-4.5-99.02-6.809-149.452-6.809c-139.411,0-274.669,17.6-403.81,50.664
						c-24.755,6.348-49.279,13.214-73.572,20.716c-79.4,24.409-156.262,54.761-230.007,90.537
						c-72.475,35.142-141.892,75.535-207.848,120.658c-98.442,67.398-233.815,28.448-281.305-80.958
						c-10.618-24.409-15.696-50.029-15.696-75.418c0-58.915,27.525-116.215,77.265-153.03
						c326.775-241.951,720.833-372.65,1134.972-372.65c251.415,0,495.443,48.183,721.468,140.162
						c146.336,59.55,285.113,137.45,413.503,232.488C3200.61,1192.039,3226.288,1286.673,3191.031,1367.862z"/>
				</g>
			</g>
			<g style="opacity:0.55;">
				<g>
					<path style="fill:#FFFFFF;" d="M3141.232,1148.934c-319.043-224.293-698.618-345.125-1096.715-345.125
						c-414.196,0-808.196,130.757-1135.029,372.707c-49.74,36.758-77.207,94.115-77.207,152.972c0,25.39,5.078,51.068,15.695,75.477
						c9.348,21.523,22.101,40.335,37.392,56.145c-37.508-19.1-69.014-50.895-87.421-93.249
						c-10.618-24.409-15.696-50.029-15.696-75.418c0-58.915,27.525-116.215,77.265-153.03
						c326.775-241.951,720.833-372.65,1134.972-372.65s808.197,130.698,1134.972,372.65
						C3133.558,1142.414,3137.482,1145.588,3141.232,1148.934z"/>
				</g>
			</g>
			<g>
				<g>
					<path style="fill:#650000;" d="M3016.794,1505.17c-42.397,0-84.204-12.715-120.112-37.288
						c-266.279-182.222-578.252-278.54-902.192-278.54s-635.913,96.318-902.192,278.54
						c-52.646,36.028-117.964,46.565-179.253,28.911c-61.221-17.639-110.889-61.282-136.27-119.736
						c-39.688-91.411-11.318-196.767,68.984-256.208c333.34-246.758,730.566-377.188,1148.73-377.188
						s815.391,130.43,1148.73,377.188c80.303,59.443,108.667,164.802,68.979,256.208c-25.376,58.452-75.044,102.095-136.27,119.736
						C3056.452,1502.407,3036.56,1505.17,3016.794,1505.17z M1994.49,1143.181c333.286,0,654.272,99.106,928.267,286.606
						c41.24,28.223,92.407,36.475,140.396,22.649c47.939-13.813,86.831-47.988,106.704-93.762l0,0
						c31.084-71.592,8.838-154.131-54.097-200.72c-325.337-240.833-713.066-368.13-1121.27-368.13s-795.933,127.297-1121.27,368.13
						c-62.935,46.587-85.186,129.126-54.102,200.72c19.873,45.774,58.769,79.949,106.709,93.762
						c47.983,13.826,99.155,5.574,140.396-22.649C1340.217,1242.287,1661.203,1143.181,1994.49,1143.181z"/>
				</g>
			</g>
			<g>
				<g>
					<path style="fill:#FF8806;" d="M2609.84,1155.801c-61.973-19.446-126.024,17.715-180.843,52.568
						c-6.117,3.866-12.406,7.791-18.812,11.599c-50.722,30.352-108.83,55.857-162.667,35.257
						c-33.179-12.637-57.646-40.854-78.072-69.995c-0.578-0.75-1.155-1.558-1.674-2.308c-1.847-2.655-3.693-5.367-5.539-8.079
						c-18.638-27.466-36.469-56.088-61.801-77.553c-27.813-23.543-50.145-40.508-111.714-36.296
						c184.132-66.647,357.185-62.204,517.313,25.102C2541.288,1105.253,2575.853,1128.45,2609.84,1155.801z"/>
				</g>
			</g>
			<g style="opacity:0.55;">
				<g>
					<path style="fill:#FFFFFF;" d="M2191.892,1200.162c11.933-32.273,4.473-70.901-18.618-96.41
						c-23.091-25.509-60.788-36.766-94.086-28.096C2113.779,1120.44,2153.428,1158.656,2191.892,1200.162z"/>
				</g>
			</g>
			<g>
				<g>
					<path style="fill:#650000;" d="M1988.328,1055.219c15.298-2.957,31.155-4.584,47.625-3.411
						c16.416,0.969,33.645,6.128,48.521,14.421c7.424,4.103,14.326,8.724,20.747,13.293c6.226,4.304,13.174,9.635,19.333,15.188
						c12.449,11.141,23.32,23.412,33.105,35.85c9.751,12.438,18.975,24.76,27.761,36.573c8.845,11.693,17.405,22.877,26.506,32.968
						c9.048,10.085,18.564,19.05,28.948,25.748c10.359,6.594,21.594,10.925,33.665,12.635c24.119,3.663,50.439-3.635,75.752-14.871
						c12.729-5.619,25.391-12.175,38.162-19.06l19.187-10.69l19.741-11.268c13.552-7.545,27.485-14.915,42.092-21.328
						c14.573-6.44,29.675-12.294,45.542-16.295c15.774-4.166,32.354-6.465,48.94-5.985c16.558,0.579,33.103,4.156,47.605,11.315
						c2.893,1.428,4.08,4.929,2.651,7.821c-1.143,2.317-3.616,3.539-6.042,3.201l-0.071-0.012
						c-29.138-4.106-56.648,2.9-82.322,14.692c-25.747,11.884-49.963,28.041-74.409,45.038l-9.207,6.436l-9.639,6.548
						c-6.487,4.379-13.093,8.643-19.946,12.665c-13.599,8.187-27.954,15.647-43.181,21.931
						c-15.208,6.306-31.345,11.401-48.408,14.486c-17.021,3.081-35.154,3.892-53.232,1.14c-18.005-2.762-35.82-9.156-51.372-18.407
						c-15.527-9.242-28.87-20.748-40.269-33.09c-11.348-12.399-21.016-25.616-29.363-38.96
						c-8.459-13.201-15.754-26.39-23.584-38.735c-7.837-12.285-15.627-24.135-24.614-34.559c-4.526-5.253-9.067-9.889-14.575-15.228
						c-5.261-5.137-10.396-9.834-15.728-13.986c-5.332-4.132-10.796-7.826-16.755-10.839c-5.918-3.082-12.397-5.294-19.116-7.285
						c-13.545-3.696-28.276-5.524-43.269-6.427l-0.027-0.001c-3.206-0.193-5.647-2.948-5.454-6.154
						C1983.792,1057.871,1985.784,1055.71,1988.328,1055.219z"/>
				</g>
			</g>
			<g>
				<g>
					<path style="fill:#FF8806;" d="M1590.679,1216.909c0.115,1.847,0.346,3.751,0.519,5.597
						c3.924,36.527,14.829,73.226,8.194,109.291c-6.636,36.123-40.219,71.379-75.765,62.319
						c-16.099-4.097-28.967-16.099-41.893-27.466c-13.618-12.002-27.294-23.313-44.836-23.716
						c-19.735-0.404-36.642,13.56-55.684,18.638c-33.641,8.887-66.128-10.56-94.115-33.411c-5.597-4.501-11.021-9.232-16.214-13.848
						c-31.218-27.813-70.917-57.243-110.848-44.894l343.913-109.003l119.216-37.795
						C1594.718,1142.703,1587.968,1181.768,1590.679,1216.909z"/>
				</g>
			</g>
			<g style="opacity:0.55;">
				<g>
					<path style="fill:#FFFFFF;" d="M1496.322,1365.989c-1.981-33.964-29.593-64.719-63.148-70.337
						c-31.515-5.276-64.715,9.487-95.276,0.155c-31.191-9.524-50.81-41.496-81.066-53.668c-26.791-10.778-59.96-2.987-79.151,18.591
						c37.706,14.129,71.355,33.453,102.723,58.7c11.129,8.957,21.895,18.641,34.672,25.031c27.685,13.845,60.435,10.39,91.269,7.674
						S1470.823,1348.44,1496.322,1365.989z"/>
				</g>
			</g>
			<g>
				<g>
					<path style="fill:#650000;" d="M1626.487,1127.327c-8.589,12.234-12.493,24.669-14.336,37.687
						c-1.702,13.035-1.514,26.443-0.059,39.963c0.725,6.864,1.667,13.231,2.971,20.474l4.229,21.927
						c2.932,15.034,5.928,31.06,6.921,48.345c0.542,8.65,0.442,17.611-0.452,26.73c-0.405,4.557-1.145,9.159-1.956,13.75
						c-1.133,4.932-2.349,9.883-4.087,14.53c-6.699,18.735-17.827,35.098-33.359,48.187c-7.732,6.534-16.921,12.047-27.415,15.634
						c-10.42,3.641-22.312,5.017-33.772,3.304c-11.548-1.614-22.019-6.143-30.337-11.359c-8.423-5.206-15.264-10.92-21.45-16.198
						c-6.191-5.229-11.763-10.233-16.885-14.102c-5.11-3.905-9.8-6.653-13.591-7.878c-0.972-0.461-1.858-0.558-2.71-0.723
						c-0.43-0.081-0.857-0.234-1.277-0.303c-0.42,0.015-0.83,0.011-1.24-0.012c-1.643-0.297-3.154,0.011-5.1,0.33
						c-3.831,0.729-9.116,2.875-15.579,6.017c-6.443,3.083-14.077,7.068-23.65,10.369c-4.834,1.731-10.146,2.792-15.349,3.82
						c-5.251,0.635-10.615,1.339-15.845,1.013c-5.313,0.029-10.374-0.785-15.466-1.51c-4.9-1.077-9.866-2.134-14.419-3.745
						c-9.312-2.939-17.739-7.102-25.476-11.598c-15.662-8.937-28.699-19.685-40.762-30.596c-6.086-5.493-11.77-11.079-16.907-16.042
						c-5.31-5.062-10.547-9.967-15.845-14.744c-10.63-9.382-21.37-18.026-32.896-24.625c-5.784-3.142-11.729-6.022-18.11-7.95
						c-6.372-1.849-13.135-2.898-20.571-3.11l-0.503-0.015c-3.276-0.094-5.857-2.825-5.762-6.102
						c0.059-2.08,1.216-3.899,2.866-4.912c7.417-4.474,16.104-7.418,25.168-8.629c9.053-1.046,18.252-0.411,27.087,1.328
						c17.676,3.635,33.506,11.365,47.72,20.203c7.036,4.496,13.875,9.208,20.254,14.224l18.015,14.348
						c5.789,4.446,11.475,8.854,17.239,12.701c5.737,3.936,11.421,7.607,17.129,10.553c5.679,3.115,11.377,5.38,16.765,7.126
						c2.725,0.996,5.347,1.42,7.966,2.069c2.554,0.251,5.122,0.774,7.546,0.659c2.488,0.208,4.819-0.217,7.224-0.334
						c2.351-0.529,4.668-0.759,7.126-1.611c5.081-1.597,11.292-4.532,18.875-7.863c7.532-3.254,16.616-7.202,28.052-9.033
						c11.455-1.986,24.612-0.327,35.149,3.829c10.693,4.169,19.026,10.07,26.042,15.651c7.029,5.659,12.773,11.171,18.257,16.029
						c10.942,9.736,20.415,16.376,27.825,16.974c3.813,0.465,7.646,0.042,11.768-1.425c4.094-1.459,8.34-4.122,12.239-7.706
						c7.881-7.035,14.294-17.388,17.412-27.887c0.881-2.626,1.306-5.221,1.848-7.821c0.41-3.03,0.862-6.051,1.05-9.193
						c0.435-6.256,0.364-12.761,0.068-19.518c-0.803-13.549-2.913-28.024-4.888-43.444c-0.962-7.723-1.909-15.671-2.544-23.867
						c-0.718-8.055-0.95-17.104-0.437-25.668c0.93-17.296,4.795-34.991,12.942-51.24c8.062-16.136,21.958-30.63,38.608-36.429
						c3.13-1.09,6.55,0.563,7.639,3.691c0.657,1.882,0.32,3.87-0.735,5.392L1626.487,1127.327z"/>
				</g>
			</g>
			<g>
				<g>
					<path style="fill:#FF8806;" d="M3081.509,1350.782c-26.312,14.368-39.816,44.72-45.875,74.091
						c-3.866,18.754-5.424,38.027-8.482,56.953c-1.674,10.675-3.808,21.293-7.155,31.564c-9.175,28.563-30.006,56.261-59.55,61.512
						c-9.81,1.731-19.331,0.808-28.39-2.193c-26.774-8.771-48.701-35.488-57.415-63.704c-8.771-28.737-8.252-59.146-9.06-89.326
						c-0.173-9.463-0.577-18.868-1.385-28.275c-3.462-39.296-18.349-82.112-53.722-99.596l134.912,29.372L3081.509,1350.782z"/>
				</g>
			</g>
			<g style="opacity:0.55;">
				<g>
					<path style="fill:#FFFFFF;" d="M2930.285,1560.172c-17.133-47.664-25.158-98.583-23.517-149.206
						c0.831-25.627,3.89-52.521-6.727-75.861c-12.911-28.384-46.725-45.523-77.25-39.156c24.847,21.917,37.376,54.388,41.798,87.224
						c4.421,32.836,1.708,66.147,1.169,99.275c-0.313,19.273,0.821,40.44,13.834,54.66
						C2891.718,1550.359,2912.553,1557.315,2930.285,1560.172z"/>
				</g>
			</g>
			<g>
				<g>
					<path style="fill:#650000;" d="M2813.015,1286.663c13.828,3.69,26.892,12.14,36.938,23c5.151,5.398,9.431,11.405,13.501,17.582
						c3.75,6.283,7.273,12.781,9.995,19.498c5.754,13.397,9.38,27.383,11.733,41.541c2.229,13.883,3.354,27.375,4.136,40.415
						c1.768,25.997,2.563,50.085,8.198,71c2.4,9.911,6.868,19.05,12.607,27.507c5.793,8.319,13.157,15.332,20.969,19.877
						c7.861,4.397,15.886,6.292,23.354,4.95c7.583-0.952,14.604-4.998,21.184-11.165c6.543-6.144,12.512-14.39,17.29-23.557
						c2.549-4.629,4.46-9.182,6.455-14.518c1.956-5.264,3.66-10.82,5.183-16.61c2.993-11.577,5.43-24.111,8.24-37.065
						c2.705-12.979,5.991-26.428,10.93-39.886c4.998-13.293,11.68-26.219,20.73-37.589c9.045-11.309,20.879-20.895,34.294-25.908
						c3.015-1.127,6.372,0.404,7.498,3.418c0.903,2.416,0.1,5.05-1.804,6.582l-0.166,0.131
						c-18.921,15.168-27.268,38.143-31.16,61.477c-1.924,11.633-2.532,23.958-3.271,36.726c-0.652,12.802-1.118,26.123-2.974,40.093
						c-0.894,6.979-2.07,14.109-3.716,21.333c-1.543,7.17-4.15,14.851-7.148,21.975c-6.23,14.32-15.11,28.052-27.925,39.327
						c-6.338,5.653-13.672,10.61-21.809,14.448c-8.152,3.826-17.141,6.348-26.267,7.234c-9.126,1.172-18.43,0.234-27.192-1.606
						c-8.787-2.014-16.875-5.4-24.392-9.414c-14.722-8.42-26.782-19.523-36.372-32.111c-9.5-12.551-17.168-26.876-21.646-42.065
						c-8.962-29.237-8.75-57.822-8.142-83.621c0.222-12.941,0.796-25.46,0.642-37.468c-0.193-11.688-1.045-23.464-3.225-34.838
						c-4.268-22.81-12.878-44.424-31.772-60.342l-0.203-0.171c-2.485-2.092-2.803-5.803-0.708-8.287
						C2808.516,1286.757,2810.884,1286.097,2813.015,1286.663z"/>
				</g>
			</g>
			<g>
				<g>
					<path style="fill:#FFBC00;" d="M2776.719,2048.072c-2.136,21.004-7.675,42.239-20.37,59.088
						c-12.694,16.85-33.584,28.505-54.53,26.024c-13.734-1.616-25.39-8.829-34.564-19.042
						c-10.618-11.829-17.889-27.583-21.063-43.22c-0.173-0.749-0.288-1.558-0.404-2.308c-5.251-28.448-1.385-57.877-3.809-86.729
						c-2.481-29.66-14.252-61.685-40.854-75.015l62.493-98.385l85.921-135.372c-29.602,56.55-20.311,125.274-4.385,187.132
						c1.443,5.54,2.885,11.137,4.443,16.677C2764.832,1933.3,2782.605,1990.253,2776.719,2048.072z"/>
				</g>
			</g>
			<g>
				<g>
					<path style="fill:#650000;" d="M2754.656,1675.779c-9.644,30.175-10.513,60.729-6.997,90.957
						c1.982,15.11,4.497,30.215,8.284,45.216c3.43,15.067,7.673,30.022,12.332,45.095c9.092,30.402,19.255,61.592,26.045,94.844
						c6.768,33.17,9.907,68.64,5.137,104.545c-2.512,18.031-7.432,37.014-17.981,54.711c-5.205,8.668-12.021,17.394-20.095,24.447
						c-8.066,7.095-17.446,12.926-28.071,16.859c-5.332,1.927-10.935,3.435-16.785,4.272c-5.869,0.769-11.943,0.885-17.993,0.245
						c-12.029-1.295-23.64-5.875-33.142-12.281c-19.185-13.025-30.532-31.412-37.021-50.229c-3.223-9.427-5.234-19.657-5.911-28.728
						c-0.813-9.258-0.859-18.212-0.591-26.821c0.598-17.228,2.673-33.091,3.257-48.232c0.398-7.65,0.437-14.708-0.247-21.956
						c-0.593-7.207-1.741-14.371-3.755-21.212c-3.853-13.733-10.823-26.403-22.583-35.47l-0.203-0.156
						c-2.551-1.967-3.025-5.629-1.057-8.18c1.545-2.006,4.15-2.722,6.428-1.982c8.584,2.803,16.646,7.789,23.433,14.099
						c6.768,6.338,12.38,13.833,16.86,21.809c4.434,8.013,7.905,16.458,10.491,25.115c2.537,8.623,4.214,17.715,5.369,26.228
						c2.173,17.205,2.759,33.733,4.175,48.868c1.345,15.146,3.999,29.027,8.792,39.879c4.854,11.318,12.246,21.23,19.951,26.539
						c7.739,5.247,15.237,6.945,24.707,3.914c4.607-1.572,9.314-4.233,13.474-7.734c4.197-3.517,7.673-7.559,10.642-12.85
						c5.947-10.282,9.478-23.265,11.147-37.235c3.24-28.51-0.562-58.325-7.012-88.401c-6.36-30.175-15.105-60.996-22.305-93.241
						c-3.503-16.25-6.504-32.877-8.54-49.72c-1.677-16.898-2.886-34.032-1.821-51.287c0.811-17.223,3.521-34.525,8.494-51.168
						c5.164-16.566,12.524-32.524,22.869-46.108c1.96-2.572,5.632-3.069,8.203-1.111
						C2754.656,1670.857,2755.383,1673.489,2754.656,1675.779z"/>
				</g>
			</g>
			<g>
				<g>
					<path style="fill:#FBC100;" d="M2466.966,2242.014l-12.695,20.542C2457.618,2255.286,2461.83,2248.419,2466.966,2242.014z"/>
				</g>
			</g>
			<g>
				<g>
					<path style="fill:#FFBC00;" d="M2451.27,2628.051c-9.983,7.097-21.523,11.945-30.755,20.023
						c-19.736,17.253-25.275,45.644-25.217,71.783c0.116,26.14,4.617,52.569,0.173,78.362
						c-4.501,25.736-21.177,51.991-46.855,56.953c-0.75,0.115-1.443,0.288-2.193,0.346c-25.736,3.751-50.375-15.176-64.396-37.392
						c-8.137-12.868-13.965-26.947-19.908-40.969c-4.674-10.906-9.406-21.754-15.407-31.909
						c-13.675-23.313-37.623-44.086-64.512-41.547l177.034-287.018l95.038-154.127c-15.349,33.237-13.156,74.265-3.577,110.561
						c3.115,11.945,6.924,23.773,10.963,35.487c10.964,31.564,23.544,62.667,29.025,95.558
						C2498.126,2549.228,2488.605,2601.622,2451.27,2628.051z"/>
				</g>
			</g>
			<g>
				<g>
					<path style="fill:#650000;" d="M2471.45,2245.62c-17.744,32.461-15.83,69.282-7.024,103.586c2.183,8.68,4.8,17,8.013,25.635
						c3.12,8.595,6.404,17.26,9.973,25.981c7.148,17.422,14.788,35.408,21.199,54.603c3.242,9.607,6.094,19.548,8.379,29.808
						c1.208,5.111,2.161,10.33,3.003,15.625c0.779,5.443,1.44,10.895,1.792,16.377c1.355,21.899-0.691,44.192-7.651,66
						c-3.513,10.854-8.132,21.635-14.573,31.711c-6.416,10.046-14.438,19.418-23.887,27.268c-4.719,3.91-9.893,7.574-14.48,10.264
						l-12.249,7.317c-7.163,4.391-10.459,7.614-14.094,12.853c-6.895,10.205-10.259,25.897-10.361,42.382
						c-0.22,16.636,2.456,35.763,2.795,57.095c0.125,10.747-0.334,21.91-2.742,33.882c-2.434,12.168-6.77,23.811-13.291,34.828
						c-6.521,10.933-15.554,21.355-27.798,29.153c-12.126,7.853-27.71,12.163-42.444,11.084
						c-14.868-0.923-28.049-6.351-38.889-13.214c-10.852-6.973-19.8-15.464-27.148-24.978c-3.635-4.668-7.161-9.917-9.895-14.791
						c-2.832-4.889-5.303-9.795-7.544-14.625c-4.529-9.683-8.142-19.054-11.46-27.991c-3.308-8.923-6.321-17.383-9.622-25.255
						c-1.731-3.979-3.193-7.648-5.117-11.127c-1.775-3.599-3.872-7.041-6.077-10.393c-9.06-13.297-20.176-25.016-37.51-29.23
						l-0.498-0.122c-3.186-0.774-5.142-3.987-4.368-7.174c0.488-2.007,1.978-3.538,3.784-4.194
						c5.254-1.865,11.018-2.864,16.865-2.81c5.833,0.031,11.675,1.13,17.29,2.793c11.199,3.472,21.362,9.554,29.961,17.003
						c4.409,3.661,8.318,7.797,12.063,12.097c3.706,4.353,7.026,9.082,9.946,13.54c5.85,9.109,10.588,18.329,14.839,27.14
						c4.26,8.788,8.037,17.24,12.085,24.833c2.019,3.816,4.097,7.423,6.287,10.763c2.175,3.425,4.238,6.064,6.665,8.888
						c4.79,5.458,10.222,10.171,15.708,13.472c5.508,3.243,10.894,4.93,15.356,4.989c4.507,0.05,8.472-0.861,12.522-3.491
						c4.067-2.549,8.157-6.979,11.523-12.534c3.406-5.496,6.074-12.141,7.488-18.848c1.504-6.924,2.178-15.125,2.3-23.636
						c0.31-17.244-1.975-36.536-1.262-58.494c0.435-11.011,1.824-22.268,4.736-33.716c2.979-11.414,7.661-23.127,15.186-33.933
						c3.821-5.348,8.215-10.457,13.308-14.919c5.083-4.535,10.288-7.987,14.995-10.886l12.634-7.426
						c3.757-2.164,6.409-4.149,9.148-6.356c10.835-8.767,18.857-21.753,23.035-36.967c4.421-15.09,5.349-31.932,3.76-48.425
						c-0.344-4.139-0.942-8.242-1.599-12.335c-0.811-4.202-1.57-8.474-2.544-12.756c-1.929-8.553-4.253-17.203-6.746-26.002
						c-5.168-17.596-11.184-35.696-16.614-54.725c-2.705-9.508-5.415-19.177-7.627-29.111c-2.17-9.882-3.931-20.371-5.002-30.691
						c-2.078-20.725-1.343-42.091,3.801-62.686c5.061-20.522,15.417-40.292,30.684-54.362c2.371-2.184,6.06-2.034,8.245,0.336
						c1.738,1.886,1.997,4.609,0.835,6.744L2471.45,2245.62z"/>
				</g>
			</g>
			<g>
				<g>
					<path style="fill:#FFBC00;" d="M1177.327,1600.949c40.012,56.916,42.916,131.702,36.766,201.003
						c-6.15,69.301-19.832,139.343-7.614,207.834c7.697,43.151,32.402,89.981,75.623,97.276
						c29.227,4.933,57.627-9.788,85.759-19.125c28.131-9.337,64.04-11.306,82.507,11.878"/>
				</g>
			</g>
			<g style="opacity:0.55;">
				<g>
					<path style="fill:#FFFFFF;" d="M1177.349,1600.927c7.963,11.368,14.484,23.486,19.735,36.065L1177.349,1600.927z"/>
				</g>
			</g>
			<g style="opacity:0.55;">
				<g>
					<path style="fill:#FFFFFF;" d="M1354.037,2095.677c-21.12,7.79-42.47,15.061-64.282,11.367
						c-43.22-7.271-67.917-54.125-75.592-97.23c-12.233-68.494,1.443-138.546,7.617-207.848
						c4.904-55.453,4.039-114.426-17.023-164.974l47.894,87.536c7.848,14.311,11.483,30.641,10.04,46.914
						c0,0.058-0.058,0.173-0.058,0.23c-6.174,69.302-19.85,139.354-7.617,207.848c7.674,43.105,32.372,89.96,75.592,97.23
						c5.77,0.981,11.483,1.212,17.138,0.808C1348.901,2083.041,1350.921,2089.099,1354.037,2095.677z"/>
				</g>
			</g>
			<g>
				<g>
					<path style="fill:#650000;" d="M1182.048,1597.631c19.578,24.536,32.117,54.357,39.541,84.843
						c7.251,30.631,9.487,62.075,9.336,93.091c-0.3,31.118-2.935,61.631-5.198,91.605c-2.139,29.957-3.916,59.493-2.634,88.173
						c0.669,14.332,2.114,28.44,4.568,42.185c1.296,6.998,2.534,13.436,4.49,19.7c1.816,6.318,4.07,12.476,6.699,18.337
						c2.507,5.955,5.688,11.373,8.884,16.62c3.42,4.994,6.936,9.84,10.911,13.726c3.955,3.853,7.937,7.456,12.261,9.76
						c1.028,0.718,2.104,1.278,3.21,1.71c1.086,0.483,2.112,1.138,3.213,1.552c2.229,0.706,4.365,1.694,6.694,2.03
						c4.514,1.116,9.324,1.487,14.683,1.191c5.342-0.358,11.211-1.349,17.5-2.823c12.571-3.099,26.553-8.075,42.17-12.651
						c16.499-4.819,34.751-6.849,52.979-3.215c9.077,1.844,18.257,5.205,26.23,10.762c7.922,5.52,14.487,13.298,17.295,21.996
						c1.042,3.234-0.732,6.7-3.965,7.744c-1.56,0.503-3.174,0.352-4.543-0.304l-0.518-0.25c-6.611-3.179-12.659-4.551-18.652-4.894
						c-5.959-0.364-11.855,0.133-17.849,1.146c-12.031,2.094-24.016,5.989-36.067,10.924c-13.01,5.15-26.938,12.026-43.506,17.125
						c-8.259,2.609-17.256,4.755-26.992,5.604c-9.685,0.864-20.193,0.64-30.354-1.94c-20.662-4.406-38.516-16.943-51.047-31.083
						c-6.431-7.123-11.482-14.822-16.14-22.592c-4.277-7.886-8.196-15.867-11.13-24.037c-3.076-8.138-5.542-16.385-7.429-24.724
						c-2.048-8.333-3.206-16.857-4.17-24.801c-1.897-16.18-2.546-32.302-2.336-48.203c0.383-31.843,4.443-62.657,8.799-92.798
						c4.304-30.137,9.336-59.68,12.002-88.995c2.622-29.351,3.083-58.767-0.632-87.681c-3.799-28.846-12.612-57.004-27.742-82.195
						l-0.034-0.055c-1.643-2.737-0.757-6.289,1.98-7.932C1177.068,1594.771,1180.269,1595.397,1182.048,1597.631z"/>
				</g>
			</g>
			<g>
				<g>
					<path style="fill:#FFBC00;" d="M1535.707,2204.218c19.551,32.76,18.392,74.249,8.238,111.023
						c-10.153,36.774-28.406,70.734-41.902,106.418c-12.448,32.911-18.792,75.158,7.135,98.945
						c7.959,7.302,18.129,11.844,26.121,19.11c24.557,22.329,21.198,60.793,21.979,93.975c0.498,21.144,3.612,42.646,13.096,61.55
						c9.484,18.904,26.049,35.004,46.54,40.241c28.157,7.196,56.822-6.572,83.809-17.356c26.987-10.783,60.079-18.097,83.232-0.532"
						/>
				</g>
			</g>
			<g style="opacity:0.55;">
				<g>
					<path style="fill:#FFFFFF;" d="M1535.688,2204.218c3.001,4.962,5.481,10.156,7.502,15.522L1535.688,2204.218z"/>
				</g>
			</g>
			<g style="opacity:0.55;">
				<g>
					<path style="fill:#FFFFFF;" d="M1667.31,2728.743c1.385,0.346,2.712,0.635,4.097,0.923
						c-18.003,6.347-36.296,10.444-54.472,5.828c-20.485-5.251-37.104-21.351-46.567-40.277
						c-9.464-18.869-12.579-40.393-13.099-61.512c-0.75-33.18,2.596-71.667-21.985-94c-7.963-7.271-18.118-11.829-26.082-19.1
						c-25.967-23.774-19.619-66.013-7.156-98.962c13.503-35.66,31.737-69.649,41.893-106.405c8.598-31.16,10.734-65.725-0.749-95.5
						l2.365,4.892c28.692,59.352,30.719,127.752,7.236,189.351c-0.123,0.323-0.246,0.646-0.368,0.969
						c-12.464,32.891-18.812,75.129,7.155,98.903c7.963,7.328,18.119,11.887,26.082,19.1c24.581,22.331,21.235,60.82,21.985,93.999
						c0.52,21.119,3.636,42.642,13.099,61.569C1630.264,2707.393,1646.825,2723.493,1667.31,2728.743z"/>
				</g>
			</g>
			<g>
				<g>
					<path style="fill:#650000;" d="M1540.662,2201.261c11.807,12.695,19.854,29.384,23.796,46.678
						c4.231,17.339,4.771,35.336,2.939,52.799c-3.638,35.466-17.224,66.912-28.899,96.299l-8.73,21.722
						c-1.394,3.574-2.732,7.135-4.019,10.679c-1.23,3.453-2.297,6.674-3.345,10.011c-4.167,13.175-6.509,26.71-6.028,38.191
						c0.239,5.734,1.277,10.84,2.932,15.009c1.626,4.215,3.948,7.466,6.987,10.479c3.184,3.065,9.573,6.797,17.766,12.778
						c4.082,2.904,8.596,7.083,12.427,11.321c3.84,4.324,7.148,9.059,9.934,13.939c5.549,9.792,8.682,19.971,10.576,29.517
						c1.887,9.589,2.612,18.7,2.979,27.388c0.776,17.303-0.322,33.374,1.101,47.09c1.201,14.049,4.46,27.122,10.01,37.91
						c5.327,10.529,13.633,19.247,22.349,24.198c4.475,2.456,8.56,4.034,13.452,4.772c4.817,0.651,10.176,0.89,16.167,0.048
						c12.036-1.367,25.959-6.162,41.143-11.064c7.463-2.36,16.099-5.05,24.849-6.791c8.77-1.743,17.861-2.885,27.209-2.75
						c9.326,0.204,18.994,1.534,28.091,5.027c9.067,3.402,17.488,9.076,23.096,16.486c1.995,2.637,1.472,6.39-1.162,8.384
						c-1.584,1.2-3.574,1.489-5.344,0.957l-0.469-0.145c-14.285-4.409-27.075-2.349-40.146,1.846
						c-6.506,2.156-13.005,4.788-19.47,7.825c-6.514,2.999-12.698,6.327-20.015,10.017c-7.17,3.569-14.724,7.228-22.944,10.435
						c-8.198,3.195-17.041,6.365-26.855,8.099c-9.751,1.755-20.54,2.662-31.541,0.974c-10.916-1.548-22.166-5.472-31.389-11.222
						c-18.838-11.401-31.899-28.286-40.249-46.532c-8.213-18.134-11.509-36.885-12.961-54.603
						c-1.25-18.151-0.708-34.095-1.565-48.702c-0.742-14.504-3.118-27.451-8.059-35.54c-1.226-2.032-2.61-3.796-4.119-5.4
						c-1.641-1.581-2.935-2.922-5.442-4.574c-4.712-3.423-12.493-7.343-21.418-14.762c-8.86-7.646-16.177-17.565-20.667-28.121
						c-4.558-10.558-6.558-21.368-7.2-31.558c-1.255-20.515,2.861-38.845,8.203-56.068c1.311-4.296,2.993-8.579,4.551-12.609
						c1.565-3.918,3.162-7.787,4.79-11.606c3.281-7.622,6.536-15.118,9.976-22.4c13.66-29.089,26.804-56.421,34.78-84.034
						c3.992-13.929,6.509-28.158,7.329-42.606c0.654-14.469-0.93-28.986-5.305-43.872l-0.068-0.234
						c-0.918-3.125,0.872-6.404,3.997-7.322C1536.895,2198.969,1539.187,2199.681,1540.662,2201.261z"/>
				</g>
			</g>
			<g>
				<g>
					<path style="fill:#FFBC00;" d="M2043.537,3228.399c-5.424,29.198-17.022,60.877-43.855,73.572
						c-26.428,12.521-58.858,1.443-80.958-17.773c-9.175-8.02-16.965-17.138-23.543-27.12
						c-23.889-36.296-31.333-83.67-29.025-127.986c1.038-20.254,3.75-40.336,7.04-60.359c5.886-35.777,13.503-71.379,16.388-107.502
						c4.443-56.376-4.848-117.946-44.317-158.396l137.45,66.705l63.07,30.583c-24.063,17.657-32.314,50.49-29.833,80.15
						c2.424,29.717,13.676,57.819,21.35,86.613c6.059,22.908,9.926,46.451,11.541,70.052
						C2050.865,3167.464,2049.134,3198.278,2043.537,3228.399z"/>
				</g>
			</g>
			<g>
				<g>
					<path style="fill:#650000;" d="M1849.382,2798.799c8.638,7.179,16.411,15.536,23.25,24.695
						c6.731,9.219,12.52,19.182,17.278,29.626c9.468,20.927,15,43.416,17.852,66.005c1.414,11.315,2.048,22.67,2.302,34.044
						c0.117,11.431-0.413,22.54-1.096,33.673c-1.272,22.227-4.358,43.849-8.689,64.667c-4.309,20.825-7.839,41.345-9.758,61.559
						c-2.021,20.286-2.332,39.768-0.09,59.17c2.207,19.269,6.836,38.015,14.514,54.735c3.713,8.444,8.455,16.166,13.752,23.292
						c2.583,3.639,5.586,6.853,8.521,10.133c3.13,2.977,6.333,6.281,9.497,8.721c12.847,10.288,29.663,16.415,42.61,14.644
						c3.242-0.36,6.24-1.124,8.977-2.388c2.793-1.157,5.5-2.778,7.91-4.917c4.932-4.072,9.27-10.212,12.813-17.634
						c7.263-14.902,10.74-34,13.75-53.997c2.69-19.783,4.348-39.79,4.253-59.919c-0.046-20.125-1.968-40.288-5.3-60.284
						c-3.232-19.819-9.207-39.98-13.762-61.876c-2.285-10.909-4.187-22.185-4.868-33.774c-0.71-11.528-0.349-23.674,2.109-35.171
						c2.332-11.549,6.304-22.9,12.476-33.099c3.059-5.105,6.743-9.858,10.823-14.172c4.182-4.258,8.896-7.917,13.86-11.034
						c2.705-1.699,6.274-0.884,7.971,1.82c1.504,2.395,1.038,5.468-0.967,7.319l-0.186,0.171
						c-14.419,13.34-20.591,32.748-21.389,51.915c-1.003,19.277,4.094,38.279,10.615,57.784c3.313,9.745,7.095,19.578,10.808,29.786
						c3.674,10.173,7.217,20.944,10.22,31.805c6.145,21.707,9.954,44.099,11.929,66.688c2.017,22.592,1.88,45.471-0.706,68.127
						c-1.316,11.378-3.093,22.384-5.837,34.243c-2.974,11.677-6.78,23.553-12.883,35.256c-6.023,11.606-14.304,23.408-26.147,32.684
						c-11.519,9.381-26.689,15.624-41.492,16.938c-14.878,1.583-29.019-1.089-41.697-5.526
						c-12.754-4.487-24.204-11.095-34.539-19.193c-5.278-4.137-9.58-8.501-14.136-12.935c-4.248-4.645-8.477-9.312-12.131-14.379
						c-7.463-9.999-13.887-20.685-18.823-31.807c-10.159-22.192-15.735-45.542-18.406-68.706
						c-2.708-23.104-2.229-46.632,0.005-68.879c2.202-22.368,5.803-44.061,8.906-65.345c3.093-21.298,7.717-41.764,11.863-61.97
						c3.896-20.302,6.67-40.114,7.168-60.264c0.503-20.083-1.152-40.178-5.913-59.631c-2.563-9.637-5.596-19.237-9.805-28.413
						c-4.316-9.093-9.565-17.802-15.671-26.132l-0.125-0.167c-1.892-2.583-1.333-6.213,1.25-8.107
						C1844.438,2796.975,1847.383,2797.137,1849.382,2798.799z"/>
				</g>
			</g>
			<g style="opacity:0.3;">
				<g>
					<path style="fill:#650000;" d="M3191.031,1367.862c-30.063,69.129-95.153,110.156-163.878,113.965
						c-1.674,10.675-3.808,21.293-7.155,31.564c-9.175,28.563-30.006,56.261-59.55,61.512c-9.81,1.731-19.331,0.808-28.39-2.193
						c-5.655-5.886-10.963-12.118-15.926-18.58c19.907-4.328,34.103-23.139,39.065-42.932c3.116-12.637,3.232-25.678,2.25-38.719
						c-0.577-7.386-1.5-14.773-2.424-22.101c-3.52-27.755-7.097-55.51-10.617-83.324c-1.731-13.618-3.462-27.583-0.519-41.027
						c0.346-1.673,0.865-3.289,1.5-4.847c4.27-10.56,14.253-17.311,23.543-24.986c47.893-39.757,65.09-112.233,40.22-169.244
						c-21.236-48.587-66.879-81.477-111.195-110.502c-59.262-38.834-119.966-75.361-181.997-109.521
						c146.336,59.55,285.113,137.45,413.503,232.488C3200.61,1192.039,3226.288,1286.673,3191.031,1367.862z"/>
				</g>
			</g>
			<g style="opacity:0.3;">
				<g>
					<path style="fill:#650000;" d="M2863.505,1406.524c-3.115,2.076-6.289,4.039-9.463,5.886
						c-135.777-84.998-285.055-150.434-443.856-192.442c-50.722,30.352-108.83,55.857-162.667,35.257
						c-33.179-12.637-57.646-40.854-78.072-69.995c-0.809-3.289-1.5-6.578-2.078-9.867c-0.923-4.962-1.731-9.983-2.308-15.061
						c5.539,6.752,11.944,12.349,18.984,16.907c26.428,17.426,61.686,20.427,94.75,13.848c10.387-2.019,20.543-4.962,30.121-8.771
						c48.298-19.042,88.864-53.549,135.372-76.515c19.1-9.405,40.393-16.618,61.743-19.677c30.698-4.443,61.57-0.404,86.267,17.657
						c29.602,21.639,45.066,59.608,76.861,77.9c16.907,9.695,36.7,12.753,54.992,19.331
						c67.514,24.236,107.675,91.864,142.355,154.646c4.212,7.559,3.289,17.253,3.578,25.909
						C2870.314,1390.251,2870.776,1401.734,2863.505,1406.524z"/>
				</g>
			</g>
			<g style="opacity:0.3;">
				<g>
					<path style="fill:#650000;" d="M1994.489,1166.245c-139.411,0-274.669,17.6-403.81,50.664c0.115,1.847,0.346,3.751,0.519,5.597
						c3.924,36.527,14.829,73.226,8.194,109.291c-6.636,36.123-40.219,71.379-75.765,62.319
						c-16.099-4.097-28.967-16.099-41.893-27.466c0-2.655,0.288-5.193,0.866-7.674c18.523,5.019,38.661-7.444,47.028-24.755
						c8.425-17.311,7.155-37.854,2.078-56.376c-3.751-13.734-9.464-26.89-14.599-40.219c-1.789-4.616-3.521-9.291-5.078-13.964
						c-6.578-20.196-9.752-42.065-8.079-63.244c1.558-20.081,7.502-39.526,18.927-56.146
						c23.428-34.045,65.781-50.663,106.867-54.414c41.142-3.809,82.401,3.232,123.543,6.809
						c41.143,3.521,84.19,3.232,121.697-14.195c27.986-12.983,51.875-35.141,81.823-42.528c37.046-9.117,76.63,6.578,105.309,31.679
						c28.736,25.043,48.587,58.454,67.975,91.23c8.886,15.003,13.099,32.198,13.849,50.202
						C2094.778,1168.554,2044.922,1166.245,1994.489,1166.245z"/>
				</g>
			</g>
			<g style="opacity:0.3;">
				<g>
					<path style="fill:#650000;" d="M1276.928,1331.618c-47.364,30.428-91.4,65.907-139.597,94.999
						c-48.196,29.092-101.896,51.971-158.167,53.622c-56.272,1.651-112.993-19.941-144.808-66.385
						c37.349,19.631,82.648,23.549,122.812,10.622c40.165-12.927,74.675-42.531,93.562-80.261
						c8.946-17.87,14.72-37.732,27.676-52.946c17.691-20.774,46.409-29.48,73.693-29.084c27.283,0.396,53.748,8.743,79.752,17.01
						C1251.176,1285.341,1268.133,1313.346,1276.928,1331.618z"/>
				</g>
			</g>
			<g style="opacity:0.3;">
				<g>
					<path style="fill:#650000;" d="M2749.598,1876.924c15.234,56.376,33.007,113.329,27.121,171.148
						c-2.136,21.004-7.675,42.239-20.37,59.088c-12.694,16.85-33.584,28.505-54.53,26.024c-13.734-1.616-25.39-8.829-34.564-19.042
						c-9.175-16.388-14.772-35.026-16.85-54.01c-0.75-6.925-1.038-13.907-0.865-20.832c5.135-0.923,10.041-2.539,14.657-4.731
						c23.082-10.675,39.526-35.084,44.431-60.589c1.616-8.31,2.193-16.676,1.962-25.043c-0.577-22.562-6.982-45.125-15.349-66.301
						c-9.867-24.986-22.331-48.99-31.622-74.15c-1.558-4.039-2.943-8.136-4.27-12.233c-9.405-29.775-22.1-70.975-5.25-97.231
						c36.065-56.261,53.26-126.717,36.641-191.46c-16.618-64.744-70.629-120.947-136.757-130.699
						c-55.857-8.193-110.791,15.58-166.533,24.582c-63.589,10.214-130.237,0.751-188.46-26.889
						c-49.452-23.486-92.614-59.493-143.97-78.42c-51.125-18.812-106.867-19.445-161.339-19.907
						c-40.508-0.289-82.516-0.347-119.619,16.042c-39.47,17.427-68.841,51.471-104.213,76.284
						c-32.141,22.62-76.284,36.873-110.733,20.658c20.254-10.791,35.949-33.93,40.277-57.416
						c6.635-36.065-4.27-72.764-8.194-109.291c-0.058-0.404-0.058-0.865-0.115-1.269c190.94-52.164,381.593-67.282,572.073-45.008
						h0.058c1.5,2.251,3.001,4.5,4.559,6.694c0.519,0.75,1.096,1.558,1.674,2.308c20.427,29.141,44.893,57.358,78.072,69.995
						c51.356,19.619,106.579-2.654,155.569-31.102c154.357,43.567,308.599,111.772,462.667,204.848
						c0.635,27.121,1.038,54.242,8.886,80.036c7.097,23.024,23.024,45.066,43.22,57.126L2749.598,1876.924z"/>
				</g>
			</g>
			<g style="opacity:0.3;">
				<g>
					<path style="fill:#650000;" d="M2490.682,2504.162c7.444,45.066-2.077,97.461-39.412,123.889
						c-9.983,7.097-21.523,11.945-30.755,20.023c-19.736,17.253-25.275,45.644-25.217,71.783c0.116,26.14,4.617,52.569,0.173,78.362
						c-4.501,25.736-21.177,51.991-46.855,56.953c-0.75,0.115-1.443,0.288-2.193,0.346c-30.871-12.983-49.395-50.894-54.01-85.862
						c-2.019-15.465-2.308-31.16-0.981-46.683c2.77-31.968,12.464-63.358,28.506-91.114c16.85-29.082,40.738-54.933,49.74-87.363
						c11.367-41.028,2.193-84.305-10.445-127.813c-8.251-28.275-17.946-56.722-24.524-84.709
						c-32.083,27.871-74.033,44.72-119.851,44.72c-68.667,0-128.506-37.853-159.665-93.884
						c18.754,6.695,39.008,10.214,60.069,10.214c100.981,0,182.863-81.939,182.863-182.862c0-32.314-8.425-62.666-23.197-88.978
						c57.185,19.792,101.443,67.224,116.85,126.312c18.869-28.678,35.43-58.281,38.893-91.287
						c3.288-31.045-5.656-61.974-9.002-93.018c-3.405-31.045,0.231-65.898,22.966-87.306c18.696-17.658,46.682-22.158,72.187-18.985
						c44.258,5.482,85.286,32.429,107.906,70.802c-3.578,48.587,5.251,97.519,18.292,145.99l-181.363,334.912
						C2472.621,2440.168,2485.201,2471.271,2490.682,2504.162z"/>
				</g>
			</g>
			<g style="opacity:0.3;">
				<g>
					<path style="fill:#650000;" d="M2255.425,2789.563l-163.82,302.482c-10.676,19.736-25.621,34.68-42.759,44.894
						c2.02,30.525,0.289,61.34-5.308,91.461c-5.424,29.198-17.022,60.877-43.855,73.572c-26.428,12.521-58.858,1.443-80.958-17.773
						c-9.175-8.02-16.965-17.138-23.543-27.12c21.87-1.327,43.451-8.944,58.568-24.582c19.85-20.658,24.986-50.26,24.12-79.631
						c-0.173-8.02-0.866-16.099-1.846-23.889c-6.694-54.53-22.908-108.252-21.754-163.186c0.749-33.584,9.925-68.841,28.448-96.25
						c11.772-17.542,27.351-31.852,46.971-40.507c25.043-11.08,58.743-15.812,67.225-41.893c5.539-17.138-3.462-35.892-0.692-53.665
						c4.212-27.121,35.314-43.162,62.608-40.681c27.352,2.481,51.356,18.235,74.15,33.526
						C2241.461,2746.978,2248.962,2768.098,2255.425,2789.563z"/>
				</g>
			</g>
			<g style="opacity:0.3;">
				<g>
					<path style="fill:#650000;" d="M1097.606,1444.467c21.382-6.732,44.728,1.354,63.907,12.958s36.225,26.785,56.517,36.312
						c51.787,24.315,113.513,7.244,164.719-18.272c51.206-25.516,99.558-59.574,155.696-70.604
						c-8.942-8.458-21.169-12.757-30.111-21.215c-11.618-10.99-23.612-22.225-38.45-28.191c-27.502-11.057-58.44-1.983-88.076-1.391
						c-31.492,0.629-63.108-8.872-89.036-26.755C1217.584,1341.9,1149.974,1388.577,1097.606,1444.467z"/>
				</g>
			</g>
			<g>
				<g>
					
						<ellipse transform="matrix(0.7071 -0.7071 0.7071 0.7071 -732.4918 1656.4194)" style="fill:#FC2F00;" cx="1633.229" cy="1712.406" rx="182.862" ry="182.862"/>
				</g>
			</g>
			<g style="opacity:0.3;">
				<g>
					<path style="fill:#650000;" d="M1915.727,1796.125c0,100.998-81.857,182.856-182.857,182.856
						c-68.689,0-128.556-37.875-159.71-93.872c18.801,6.652,39.028,10.181,60.07,10.181c100.999,0,182.856-81.925,182.856-182.856
						c0-32.309-8.417-62.649-23.145-88.985C1864.413,1648.224,1915.727,1716.167,1915.727,1796.125z"/>
				</g>
			</g>
			<g style="opacity:0.55;">
				<g>
					<path style="fill:#FFFFFF;" d="M1506.302,1739.72c0,61.02,29.932,115.117,75.884,148.308
						c-76.156-22.06-131.814-92.378-131.814-175.594c0-100.999,81.857-182.924,182.856-182.924
						c39.979,0,76.903,12.828,106.972,34.616c-16.222-4.752-33.327-7.262-51.042-7.262
						C1588.16,1556.864,1506.302,1638.721,1506.302,1739.72z"/>
				</g>
			</g>
			<g>
				<g>
					<path style="fill:#650000;" d="M1633.23,1918.349c-113.56,0-205.942-92.385-205.942-205.942
						c0-113.56,92.383-205.945,205.942-205.945s205.942,92.385,205.942,205.945
						C1839.172,1825.964,1746.789,1918.349,1633.23,1918.349z M1633.23,1552.624c-88.101,0-159.78,71.677-159.78,159.783
						c0,88.103,71.68,159.78,159.78,159.78s159.78-71.677,159.78-159.78C1793.01,1624.301,1721.33,1552.624,1633.23,1552.624z"/>
				</g>
			</g>
			<g style="opacity:0.3;">
				<g>
					
						<ellipse transform="matrix(0.2298 -0.9732 0.9732 0.2298 -464.4499 2934.9282)" style="fill:#650000;" cx="1621.996" cy="1760.893" rx="26.709" ry="26.709"/>
				</g>
			</g>
			<g style="opacity:0.3;">
				<g>
					
						<ellipse transform="matrix(0.7071 -0.7071 0.7071 0.7071 -693.2537 1692.2084)" style="fill:#650000;" cx="1696.049" cy="1682.935" rx="39.721" ry="39.721"/>
				</g>
			</g>
			<g>
				<g>
					<circle style="fill:#FC2F00;" cx="2115.244" cy="2110.13" r="182.862"/>
				</g>
			</g>
			<g style="opacity:0.55;">
				<g>
					<path style="fill:#FFFFFF;" d="M1988.317,2137.444c0,61.02,29.932,115.117,75.884,148.308
						c-76.156-22.06-131.814-92.378-131.814-175.594c0-100.999,81.857-182.924,182.856-182.924
						c39.979,0,76.903,12.828,106.972,34.616c-16.222-4.752-33.327-7.262-51.042-7.262
						C2070.174,1954.588,1988.317,2036.446,1988.317,2137.444z"/>
				</g>
			</g>
			<g>
				<g>
					<path style="fill:#650000;" d="M2115.241,2316.074c-113.56,0-205.942-92.385-205.942-205.945
						c0-113.557,92.383-205.942,205.942-205.942s205.947,92.385,205.947,205.942
						C2321.189,2223.688,2228.801,2316.074,2115.241,2316.074z M2115.241,1950.349c-88.101,0-159.78,71.677-159.78,159.78
						c0,88.103,71.68,159.783,159.78,159.783c88.105,0,159.785-71.68,159.785-159.783
						C2275.027,2022.026,2203.347,1950.349,2115.241,1950.349z"/>
				</g>
			</g>
			<g style="opacity:0.3;">
				<g>
					
						<ellipse transform="matrix(0.7071 -0.7071 0.7071 0.7071 -910.1225 2120.0046)" style="fill:#650000;" cx="2104.011" cy="2158.617" rx="26.709" ry="26.709"/>
				</g>
			</g>
			<g style="opacity:0.3;">
				<g>
					<circle style="fill:#650000;" cx="2178.064" cy="2080.66" r="39.721"/>
				</g>
			</g>
			<g>
				<g>
					<path style="fill:#FBC100;" d="M1652.736,1437.692c15.213,3.141,25.616,17.929,29.306,33.019
						c3.69,15.089,2.224,30.882,2.593,46.412c0.842,35.344,12.255,71.564,37.239,96.577c24.985,25.013,64.849,36.416,97.324,22.442
						c25.132-10.814,42.212-34.06,59.536-55.236c17.324-21.176,38.292-42.443,65.375-46.32"/>
				</g>
			</g>
			<g>
				<g>
					<path style="fill:#FBC100;" d="M1652.711,1437.683c2.25,0.462,4.328,1.154,6.347,2.136L1652.711,1437.683z"/>
				</g>
			</g>
			<g style="opacity:0.55;">
				<g>
					<path style="fill:#FFFFFF;" d="M1861.251,1602.196c-12.059,13.965-25.273,26.717-42.065,33.93
						c-32.487,13.964-72.302,2.597-97.288-22.447c-24.986-24.985-36.411-61.223-37.276-96.538
						c-0.347-15.522,1.096-31.333-2.597-46.452c-3.173-12.868-11.195-25.504-22.966-30.87l49.779,16.509
						c11.302,3.748,18.819,14.259,19.115,26.163c0.002,0.067,0.003,0.134,0.005,0.201c0.807,35.315,12.232,71.552,37.219,96.538
						C1789.814,1603.928,1828.995,1615.353,1861.251,1602.196z"/>
				</g>
			</g>
			<g>
				<g>
					<path style="fill:#650000;" d="M1653.904,1432.041c6.052-0.326,12.424,1.296,18.032,4.219
						c5.566,2.977,10.503,7.073,14.619,11.753c4.072,4.729,7.419,10.038,9.995,15.813c2.485,5.847,4.214,11.456,5.415,17.124
						c2.449,11.257,3.079,21.793,4.016,30.938c0.911,8.97,2.195,17.153,4.041,25.442c3.706,16.426,10.21,31.627,18.906,44.211
						c8.875,12.69,19.341,22.252,32.576,28.619c12.993,6.266,27.698,9.427,40.833,6.812c12.805-2.205,25.872-10.482,38.943-22.7
						c6.531-6.053,13.088-12.878,20.029-19.895c6.99-6.963,14.321-14.587,22.642-21.157c8.206-6.698,17.271-12.886,27.332-17.415
						c9.988-4.601,21.155-7.257,32.012-6.93c3.232,0.096,5.774,2.795,5.676,6.028c-0.076,2.452-1.648,4.508-3.813,5.314
						l-0.227,0.082c-17.056,6.322-29.282,19.03-40.308,33.325c-5.457,7.299-10.608,14.746-15.903,22.968
						c-5.349,8.168-11.045,16.578-17.712,24.939c-6.658,8.357-14.331,16.692-23.838,24.086
						c-9.341,7.399-20.942,13.586-33.403,17.106c-24.929,7.092-51.062,4.066-73.528-5.618c-11.289-4.866-21.833-11.444-31.189-19.65
						c-9.336-8.394-17.004-17.572-23.306-27.742c-12.725-20.176-19.382-42.671-21.958-64.757
						c-1.353-10.99-1.465-22.354-0.618-32.919c0.869-10.382,2.268-19.425,2.866-27.64c0.54-8.346,0.481-15.237-1.709-22.548
						c-2.117-7.257-5.83-13.733-12.754-18.505l-0.715-0.492c-2.698-1.859-3.376-5.554-1.519-8.252
						C1650.415,1433.035,1652.144,1432.146,1653.904,1432.041z"/>
				</g>
			</g>
			<g>
				<g>
					<path style="fill:#FBC100;" d="M2067.845,1838.662c15.465-1.464,29.751,9.617,37.709,22.958
						c7.958,13.341,11.194,28.868,16.107,43.605c11.183,33.539,32.728,64.811,63.956,81.385
						c31.228,16.574,72.683,15.77,99.624-7.124c20.848-17.717,30.351-44.953,40.693-70.282s24.142-51.815,48.893-63.474"/>
				</g>
			</g>
			<g>
				<g>
					<path style="fill:#FBC100;" d="M1890.449,2054.131l-6.635-0.173C1886.064,2053.727,1888.257,2053.785,1890.449,2054.131z"/>
				</g>
			</g>
			<g style="opacity:0.55;">
				<g>
					<path style="fill:#FFFFFF;" d="M2292.5,1972.562c-2.308,2.424-4.674,4.732-7.271,6.924
						c-26.947,22.909-68.378,23.717-99.596,7.098c-31.217-16.561-52.798-47.836-63.993-81.362
						c-4.905-14.715-8.136-30.237-16.1-43.624c-6.809-11.425-18.177-21.119-31.045-22.735l40.296,0.925
						c24.843,0.57,46.37,16.908,54.148,40.508c0.044,0.134,0.088,0.268,0.133,0.402c11.195,33.525,32.718,64.801,63.935,81.362
						C2251.012,1971.639,2272.42,1975.447,2292.5,1972.562z"/>
				</g>
			</g>
			<g>
				<g>
					<path style="fill:#650000;" d="M2067.3,1832.917c5.691-2.089,12.261-2.41,18.477-1.262c6.196,1.212,12.119,3.677,17.427,6.942
						c5.281,3.325,10.039,7.417,14.199,12.18c4.092,4.861,7.39,9.714,10.203,14.78c5.647,10.042,9.341,19.928,12.922,28.395
						c3.503,8.307,7.134,15.753,11.333,23.134c8.367,14.613,19.048,27.235,31.055,36.711c12.209,9.526,25.022,15.593,39.543,17.793
						c14.26,2.174,29.246,0.878,41.033-5.479c11.594-5.868,21.655-17.616,30.562-33.134c4.465-7.705,8.73-16.155,13.303-24.9
						c4.639-8.708,9.409-18.149,15.432-26.874c5.879-8.811,12.725-17.389,21.013-24.67c8.196-7.332,18.091-13.151,28.567-16.025
						c3.118-0.856,6.338,0.978,7.195,4.095c0.649,2.367-0.249,4.792-2.085,6.199l-0.193,0.146
						c-14.448,11.051-22.402,26.787-28.748,43.691c-3.071,8.579-5.808,17.211-8.455,26.625c-2.717,9.377-5.691,19.091-9.609,29.039
						c-3.911,9.945-8.801,20.165-15.715,30.024c-6.758,9.816-16.033,19.137-26.909,26.16
						c-21.748,14.099-47.617,18.879-71.936,16.219c-12.222-1.337-24.233-4.529-35.583-9.625
						c-11.389-5.282-21.416-11.805-30.425-19.675c-18.086-15.551-31.057-35.099-40.005-55.455
						c-4.519-10.109-7.964-20.939-10.256-31.287c-2.217-10.179-3.535-19.235-5.376-27.263c-1.934-8.136-4.014-14.707-8.252-21.052
						c-4.155-6.316-9.607-11.416-17.627-13.944l-0.828-0.261c-3.125-0.985-4.858-4.316-3.875-7.441
						C2064.258,1834.89,2065.649,1833.535,2067.3,1832.917z"/>
				</g>
			</g>
			<g>
				<g style="opacity:0.3;">
					<g>
						<path style="fill:#650000;" d="M2254.807,1492.981c-39.844,52.264-0.86,82.856,53.876,113.099
							c20.904,11.55,25.593,39.534,9.623,57.292c-15.846,17.62-35.784,38.652-54.981,55.773
							c-41.331,36.854,25.997,70.531,25.997,70.531l10.32,6.324c0,0,60.571,44.702,74.646-8.855
							c6.609-25.149,16.444-52.789,25.018-75.036c8.616-22.356,35.938-30.756,55.632-17.111
							c56.705,39.291,110.079,68.59,135.053,3.387c20.224-52.801-6.335-158.053-98.907-214.783S2296.039,1438.897,2254.807,1492.981
							z"/>
					</g>
				</g>
				<g>
					<g>
						<path style="fill:#FFD9AB;" d="M2191.347,1421.813c-39.844,52.264-0.86,82.856,53.876,113.099
							c20.905,11.55,25.593,39.534,9.623,57.292c-15.846,17.62-35.784,38.652-54.981,55.773
							c-41.331,36.854,25.997,70.531,25.997,70.531l10.32,6.324c0,0,60.571,44.702,74.646-8.855
							c6.609-25.149,16.444-52.789,25.018-75.036c8.616-22.356,35.938-30.756,55.632-17.111
							c56.705,39.291,110.079,68.59,135.053,3.387c20.224-52.801-6.335-158.054-98.908-214.783S2232.578,1367.73,2191.347,1421.813z
							"/>
					</g>
				</g>
				<g style="opacity:0.3;">
					<g>
						<path style="fill:#650000;" d="M2180.171,1657.337c-13.382,30.68,37.139,55.906,37.139,55.906l10.336,6.334
							c0,0,60.561,44.731,74.628-8.857c6.622-25.161,16.403-52.786,24.996-75.011c8.606-22.375,35.964-30.744,55.65-17.11
							c56.672,39.285,110.061,68.547,135.08,3.368c12.74-33.351,6.839-87.552-22.536-137.286
							c11.123,35.171,11.277,68.884,2.318,92.221c-24.961,65.214-78.315,35.896-135.044-3.425
							c-19.686-13.635-46.987-5.23-55.593,17.145c-8.593,22.225-18.409,49.907-25.031,75.068
							c-14.089,53.497-74.685,8.822-74.685,8.822l-10.279-6.299C2197.149,1668.213,2189.02,1664.174,2180.171,1657.337z"/>
					</g>
				</g>
				<g style="opacity:0.55;">
					<g>
						<path style="fill:#FEFEFD;" d="M2193.89,1499.853c1.79-9.586,6.723-20.072,15.538-31.637
							c41.225-54.069,143.69-66.054,236.253-9.33c37.631,23.06,64.321,54.105,81.409,86.334
							c-12.158-47.195-43.906-98.698-99.466-132.746c-92.564-56.724-195.029-44.739-236.253,9.33
							C2166.323,1454.604,2172.344,1478.873,2193.89,1499.853z"/>
					</g>
				</g>
				<g>
					<g>
						<path style="fill:#650000;" d="M2280.974,1762.526c-25.117,0-49.199-15.969-56.03-20.896l-8.945-5.478
							c-9.199-4.729-45.098-25.105-49.346-57.065c-1.548-11.646,0.625-29.109,19.771-46.184
							c15.41-13.743,33.877-32.488,53.403-54.202c3.477-3.867,4.98-9.018,4.116-14.136c-0.503-2.998-2.28-8.545-8.486-11.975
							c-34.424-19.021-71.777-42.307-79.297-78.052c-4.365-20.742,2.07-42.6,19.126-64.968v-0.003
							c51.123-67.056,166.597-73.364,262.891-14.353c105.078,64.394,129.78,180.31,107.217,239.228
							c-9.971,26.028-25.273,42.388-45.483,48.63c-37.266,11.497-79.688-14.753-119.937-42.642c-4.268-2.959-9.57-3.77-14.531-2.241
							c-4.971,1.528-8.887,5.178-10.747,10.012c-10.635,27.583-19.048,52.793-24.336,72.908
							c-6.519,24.81-21.094,34.675-32.173,38.581C2292.527,1761.689,2286.721,1762.526,2280.974,1762.526z M2207.405,1434.057
							c-14.487,19.004-12.402,28.911-11.719,32.166c3.828,18.191,32.124,35.996,59.302,51.011
							c15.381,8.499,25.874,23.306,28.789,40.628c2.915,17.334-2.153,34.773-13.916,47.849
							c-20.791,23.122-39.819,42.414-56.553,57.339c-3.281,2.927-7.09,7.158-6.616,10.715c1.108,8.345,17.173,21.164,28.203,26.68
							c0.518,0.259,1.025,0.539,1.519,0.842l10.322,6.323c0.493,0.303,0.977,0.627,1.44,0.972
							c9.78,7.131,28.501,15.876,36.597,13.013c3.369-1.201,5.405-6.509,6.523-10.75c5.742-21.843,14.39-47.805,25.708-77.166
							c6.343-16.47,19.668-28.896,36.558-34.094c16.885-5.198,34.897-2.412,49.419,7.644c20.571,14.258,63.413,43.938,85.01,37.249
							c7.754-2.393,14.375-10.63,19.678-24.482c17.466-45.593-8.555-140.063-90.596-190.342
							c-86.841-53.213-176.45-39.153-209.668,4.407V1434.057z"/>
					</g>
				</g>
			</g>
			<g>
				<g style="opacity:0.3;">
					<g>
						<path style="fill:#650000;" d="M1810.554,2429.414c-53.435,38.259-25.153,78.95,18.289,123.934
							c16.591,17.18,12.856,45.306-7.625,57.592c-20.321,12.189-45.557,26.44-68.935,37.169c-50.331,23.093,4.14,75.055,4.14,75.055
							l8.008,9.076c0,0,44.774,60.518,73.955,13.455c13.703-22.099,31.221-45.633,45.949-64.381
							c14.801-18.841,43.385-18.847,58.204-0.02c42.667,54.21,85.085,97.891,128.104,42.896
							c34.838-44.535,40.357-152.946-31.476-234.358C1967.335,2408.419,1865.849,2389.823,1810.554,2429.414z"/>
					</g>
				</g>
				<g>
					<g>
						<path style="fill:#FFD9AB;" d="M1773.047,2384.213c-53.435,38.259-25.153,78.95,18.289,123.933
							c16.591,17.18,12.856,45.307-7.625,57.592c-20.322,12.189-45.557,26.44-68.935,37.169c-50.331,23.093,4.14,75.055,4.14,75.055
							l8.008,9.076c0,0,44.774,60.518,73.955,13.455c13.703-22.099,31.221-45.633,45.949-64.381
							c14.801-18.84,43.385-18.847,58.204-0.02c42.667,54.21,85.085,97.891,128.104,42.896
							c34.838-44.535,40.357-152.946-31.476-234.358C1929.828,2363.218,1828.342,2344.622,1773.047,2384.213z"/>
					</g>
				</g>
				<g style="opacity:0.3;">
					<g>
						<path style="fill:#650000;" d="M1693.202,2606.072c-21.801,25.398,19.085,64.347,19.085,64.347l8.02,9.09
							c0,0,44.755,60.543,73.939,13.448c13.718-22.108,31.18-45.642,45.921-64.365c14.797-18.861,43.406-18.828,58.221-0.014
							c42.637,54.195,85.08,97.844,128.135,42.885c21.972-28.139,32.247-81.684,18.772-137.852
							c0.304,36.887-9.448,69.159-24.865,88.836c-43.011,55.009-85.403,11.315-128.085-42.929
							c-14.814-18.814-43.379-18.797-58.176,0.064c-14.741,18.722-32.252,42.301-45.971,64.408
							c-29.177,47.001-73.983-13.498-73.983-13.498l-7.976-9.039C1706.238,2621.453,1699.653,2615.205,1693.202,2606.072z"/>
					</g>
				</g>
				<g style="opacity:0.55;">
					<g>
						<path style="fill:#FEFEFD;" d="M1752.562,2459.56c4.526-8.637,12.321-17.213,24.143-25.679
							c55.285-39.58,156.752-20.948,228.577,60.457c29.2,33.094,45.597,70.607,52.467,106.434
							c2.237-48.685-12.987-107.24-56.1-156.102c-71.826-81.405-173.293-100.037-228.578-60.457
							C1739.497,2408.21,1738.126,2433.177,1752.562,2459.56z"/>
					</g>
				</g>
				<g>
					<g>
						<path style="fill:#650000;" d="M1774.006,2738.61c-31.318,0-56.646-30.73-62.764-38.816l-6.938-7.861
							c-7.407-7.222-35.732-37.241-30.41-69.041c1.938-11.587,9.146-27.644,32.461-38.342c18.76-8.611,41.919-21.106,66.963-36.13
							c4.463-2.676,7.407-7.161,8.086-12.305c0.4-3.015,0.332-8.835-4.595-13.938c-27.319-28.289-56.191-61.516-52.881-97.893
							c1.924-21.111,14.492-40.117,37.363-56.492l0,0c68.564-49.092,180.791-21.206,255.513,63.477
							c81.538,92.415,71.113,210.471,32.241,260.164c-17.173,21.953-36.606,33.101-57.759,33.13c-0.024,0-0.059,0-0.088,0
							c-38.975,0.002-71.777-37.529-102.036-75.979c-3.208-4.072-8.027-6.411-13.228-6.411c-0.005,0-0.005,0-0.01,0
							c-5.195,0.005-10.015,2.341-13.213,6.416c-18.257,23.23-33.701,44.858-44.668,62.546
							c-13.521,21.804-30.352,26.953-42.09,27.434C1775.305,2738.596,1774.656,2738.61,1774.006,2738.61z M1841.853,2384.36
							c-22.373,0-42.212,5.654-57.046,16.274l0,0c-19.434,13.914-20.352,23.997-20.649,27.31
							c-1.685,18.511,20.137,43.838,41.704,66.172c12.207,12.639,17.886,29.873,15.591,47.285
							c-2.305,17.427-12.271,32.61-27.354,41.658c-26.67,15.999-50.522,28.853-70.894,38.203c-3.999,1.833-8.882,4.761-9.473,8.301
							c-1.392,8.303,10.2,25.276,19.121,33.789c0.42,0.398,0.82,0.815,1.201,1.25l8.008,9.075c0.386,0.432,0.747,0.884,1.094,1.35
							c7.256,9.685,22.593,23.469,31.162,23.184c3.579-0.156,7.085-4.634,9.399-8.362c11.904-19.204,27.798-41.482,47.231-66.213
							c10.903-13.879,27.29-21.846,44.956-21.853c0.01,0,0.02,0,0.029,0c17.661,0,34.053,7.952,44.966,21.821
							c15.479,19.661,47.671,60.569,70.298,60.569c0.01,0,0.02,0,0.029,0c8.115-0.012,16.86-5.942,26.001-17.627
							c30.083-38.455,32.954-136.396-30.713-208.552C1941.57,2407.05,1886.653,2384.36,1841.853,2384.36z M1773.049,2384.213h0.049
							H1773.049z"/>
					</g>
				</g>
			</g>
			<g style="opacity:0.3;">
				<g>
					<ellipse style="fill:#650000;" cx="1686.801" cy="2243.327" rx="21.223" ry="31.347"/>
				</g>
			</g>
			<g style="opacity:0.3;">
				<g>
					<ellipse style="fill:#650000;" cx="2276.647" cy="2509.953" rx="21.223" ry="31.347"/>
				</g>
			</g>
			<g style="opacity:0.3;">
				<g>
					<ellipse style="fill:#650000;" cx="2045.37" cy="1636.992" rx="21.223" ry="31.347"/>
				</g>
			</g>
			<g style="opacity:0.3;">
				<g>
					<ellipse style="fill:#650000;" cx="1323.725" cy="1610.876" rx="21.223" ry="31.347"/>
				</g>
			</g>
			<g style="opacity:0.3;">
				<g>
					<ellipse style="fill:#650000;" cx="1772.763" cy="2187.686" rx="11.192" ry="16.532"/>
				</g>
			</g>
			<g style="opacity:0.3;">
				<g>
					<ellipse style="fill:#650000;" cx="1344.948" cy="1712.406" rx="11.192" ry="16.532"/>
				</g>
			</g>
			<g style="opacity:0.3;">
				<g>
					<ellipse style="fill:#650000;" cx="1994.489" cy="1498.624" rx="11.192" ry="16.532"/>
				</g>
			</g>
			<g style="opacity:0.3;">
				<g>
					<ellipse style="fill:#650000;" cx="2217.785" cy="2457.845" rx="11.192" ry="16.532"/>
				</g>
			</g>
			<g style="opacity:0.3;">
				<g>
					<ellipse style="fill:#650000;" cx="1704.24" cy="2126.662" rx="19.042" ry="28.126"/>
				</g>
			</g>
			<g>
				<g>
					<g>
						<path style="fill:#3FE05D;" d="M1521.232,1969.79c38.381,52.964,91.752,87.046,162.574,99.146l-42.407,69.538
							c-67.711-10.88-121.903-43.928-162.575-99.146L1521.232,1969.79z"/>
					</g>
				</g>
				<g style="opacity:0.55;">
					<g>
						<path style="fill:#FEFEFD;" d="M1478.811,2039.334l42.429-69.568c6.838,9.459,14.198,18.31,22.023,26.541l-26.342,43.116
							c33.702,45.799,76.697,76.342,128.997,91.573l-4.536,7.501C1573.684,2127.614,1519.475,2094.556,1478.811,2039.334z"/>
					</g>
				</g>
				<g>
					<g>
						<path style="fill:#650000;" d="M1641.404,2155.786c-0.913,0-1.831-0.073-2.749-0.22
							c-72.036-11.575-130.503-47.229-173.77-105.972c-4.165-5.659-4.497-13.279-0.84-19.28l42.407-69.539
							c3.018-4.944,8.306-8.054,14.092-8.284c5.713-0.237,11.304,2.451,14.707,7.139c36.929,50.964,86.475,81.135,151.47,92.244
							c5.654,0.967,10.464,4.673,12.842,9.895s2.012,11.282-0.977,16.182l-42.407,69.536
							C1653.005,2152.692,1647.37,2155.786,1641.404,2155.786z M1499.792,2038.198c34.824,43.359,78.521,70.005,133.013,81.121
							l23.496-38.528c-53.457-13.625-98.091-40.723-133.179-80.854L1499.792,2038.198z"/>
					</g>
				</g>
			</g>
			<g>
				<g>
					<g>
						<path style="fill:#3FE05D;" d="M1862.384,1272.491c62.909,17.91,125.93,11.711,189.081-22.554l9.647,80.875
							c-59.951,33.302-122.979,40.82-189.081,22.554L1862.384,1272.491z"/>
					</g>
				</g>
				<g style="opacity:0.55;">
					<g>
						<path style="fill:#FEFEFD;" d="M1872.025,1353.38l-9.649-80.913c11.222,3.209,22.479,5.617,33.717,7.25l5.944,50.176
							c54.802,15.17,107.479,12.603,158.005-7.753l1.071,8.701C2001.171,1364.132,1938.124,1371.654,1872.025,1353.38z"/>
					</g>
				</g>
				<g>
					<g>
						<path style="fill:#650000;" d="M1940.993,1380.344c-24.18,0-48.726-3.425-73.569-10.293
							c-6.777-1.87-11.748-7.654-12.578-14.634l-9.648-80.874c-0.688-5.752,1.548-11.465,5.957-15.222
							c4.409-3.757,10.41-5.059,15.972-3.479c60.522,17.234,118.125,10.322,176.084-21.121c5.044-2.739,11.113-2.798,16.211-0.161
							c5.098,2.639,8.555,7.629,9.233,13.325l9.644,80.876c0.835,6.98-2.637,13.772-8.779,17.185
							C2028.269,1368.857,1985.251,1380.344,1940.993,1380.344z M1887.815,1339.519c54.189,12.561,104.995,6.494,154.702-18.452
							l-5.347-44.809c-50.439,22.334-102.271,28.616-154.663,18.765L1887.815,1339.519z"/>
					</g>
				</g>
			</g>
			<g>
				<g>
					<g>
						<path style="fill:#3FE05D;" d="M2194.387,2349.028c65.344-2.904,123.17-28.716,172.244-81.194l34.729,73.673
							c-46.343,50.552-103.757,77.617-172.244,81.194L2194.387,2349.028z"/>
					</g>
				</g>
				<g style="opacity:0.55;">
					<g>
						<path style="fill:#FEFEFD;" d="M2229.114,2422.716l-34.743-73.708c11.661-0.505,23.101-1.781,34.28-3.785l21.508,45.72
							c56.787-2.94,105.948-22.035,147.443-57.324l3.768,7.915C2355.031,2392.073,2297.599,2419.148,2229.114,2422.716z"/>
					</g>
				</g>
				<g>
					<g>
						<path style="fill:#650000;" d="M2229.109,2440.014c-6.67,0-12.788-3.848-15.654-9.932l-34.727-73.674
							c-2.471-5.239-2.153-11.365,0.84-16.323c2.988-4.961,8.267-8.093,14.053-8.352c62.876-2.795,115.332-27.563,160.361-75.723
							c3.916-4.187,9.629-6.152,15.332-5.278c5.669,0.891,10.527,4.531,12.974,9.719l34.731,73.672
							c2.998,6.36,1.851,13.899-2.9,19.08c-49.297,53.779-111.24,82.979-184.102,86.787
							C2229.714,2440.004,2229.411,2440.014,2229.109,2440.014z M2220.598,2364.035l19.106,40.54
							c55.376-5.227,101.665-27.048,140.933-66.433l-19.243-40.818C2320.603,2334.46,2273.415,2356.818,2220.598,2364.035z"/>
					</g>
				</g>
			</g>
			<g style="opacity:0.2;">
				<g>
					<path style="fill:#FFFFFF;" d="M2254.875,1003.565c38.383,20.539,84.148,22.257,127.407,17.383
						c21.831-2.459,46.64-8.728,56.214-28.501c8.667-17.9,0.301-40.391-14.534-53.636c-14.835-13.245-34.659-19.202-53.969-23.963
						c-28.34-6.987-57.113-12.214-86.098-15.654c-15.072-1.789-30.202-3.095-45.357-3.913c-8.763-0.473-32.579-5.381-39.936-0.052
						c-14.299,10.358,0.474,46.966,6.677,58.783C2216.266,974.94,2234.073,992.434,2254.875,1003.565z"/>
				</g>
			</g>
			<g style="opacity:0.2;">
				<g>
					<path style="fill:#FFFFFF;" d="M2489.375,960.568c-4.028,12.788,4.584,26.058,14.2,35.4
						c14.376,13.967,32.107,24.456,51.271,30.33c8.473,2.597,18.072,4.196,25.876-0.003c7.035-3.785,11.078-11.592,12.731-19.408
						c5.759-27.226-14.36-52.15-39.091-61.408C2535.72,938.501,2496.749,937.159,2489.375,960.568z"/>
				</g>
			</g>
		</g>
	</g>
</g>
</svg>
